<svg width="319" height="132" viewBox="0 0 319 132" fill="none" xmlns="http://www.w3.org/2000/svg">
<rect x="19.0589" y="27" width="38.1176" height="19.0588" fill="#B3B1FC" fill-opacity="0.7"/>
<path d="M19.0588 46.0588H0L9.5294 36.5294L19.0588 27L19.0588 46.0588Z" fill="#B3B1FC"/>
<path d="M52.9412 79.9411L52.9412 60.8823L62.4706 70.4117L72 79.9411L52.9412 79.9411Z" fill="#B3B1FC"/>
<path d="M52.9412 92.647L72 92.647L62.4706 102.176L52.9412 111.706L52.9412 92.647Z" fill="#B3B1FC"/>
<path d="M19.0588 92.647L19.0588 111.706L9.5294 102.176L2.27274e-07 92.647L19.0588 92.647Z" fill="#B3B1FC"/>
<rect x="19.0589" y="46.0588" width="46.5882" height="19.0588" transform="rotate(90 19.0589 46.0588)" fill="#B3B1FC" fill-opacity="0.7"/>
<rect x="19.0589" y="92.647" width="33.8823" height="19.0588" fill="#B3B1FC" fill-opacity="0.7"/>
<rect x="52.9411" y="79.9412" width="19.0588" height="12.7059" fill="#B3B1FC" fill-opacity="0.7"/>
<rect x="52.9411" y="60.8823" width="19.0588" height="12.7059" transform="rotate(90 52.9411 60.8823)" fill="#B3B1FC" fill-opacity="0.7"/>
<path d="M92.81 110L80.6 97.79V41.14L92.81 28.93H131.09L142.2 40.04L133.51 48.84L125.48 41.03H99.19L94.35 45.87L94.46 93.06L99.19 97.9H126.47L134.5 89.98L143.19 98.89L132.08 110H92.81ZM153.686 110V28.93H166.996V60.94L175.466 52.47H196.036L208.246 64.79V110H194.936V67.87L190.316 62.81H178.766L166.996 74.47V110H153.686ZM231.414 110L219.204 97.79V85.36L231.414 73.04H259.244V68.2L254.404 63.36H226.794V52.47H260.344L272.554 64.79V110H259.244V101.64L250.774 110H231.414ZM237.354 99.77L247.694 99.66L259.244 88.11V83.38H237.354L232.514 88.22V94.82L237.354 99.77ZM300.05 110L288.94 99.11V62.81H284.32V52.47H289.27L292.79 38.5H302.25V52.47H312.26V62.81H302.25V94.38L306.76 99.11H314.9V110H300.05Z" fill="#B3B1FC" fill-opacity="0.7"/>
</svg>
