<svg width="192" height="77" viewBox="0 0 192 77" fill="none" xmlns="http://www.w3.org/2000/svg">
<rect x="12.4412" y="12" width="24.8823" height="12.4412" fill="#B3B1FC" fill-opacity="0.7"/>
<path d="M12.4412 24.4412H0L6.22058 18.2206L12.4412 12L12.4412 24.4412Z" fill="#B3B1FC"/>
<path d="M34.5588 46.5586L34.5588 34.1174L40.7794 40.338L47 46.5586L34.5588 46.5586Z" fill="#B3B1FC"/>
<path d="M34.5588 54.853L47 54.853L40.7794 61.0736L34.5588 67.2942L34.5588 54.853Z" fill="#B3B1FC"/>
<path d="M12.4412 54.853L12.4412 67.2942L6.22058 61.0736L1.48359e-07 54.853L12.4412 54.853Z" fill="#B3B1FC"/>
<rect x="12.4412" y="24.4412" width="30.4117" height="12.4412" transform="rotate(90 12.4412 24.4412)" fill="#B3B1FC" fill-opacity="0.7"/>
<rect x="12.4412" y="54.8528" width="22.1176" height="12.4412" fill="#B3B1FC" fill-opacity="0.7"/>
<rect x="34.5588" y="46.5588" width="12.4412" height="8.29411" fill="#B3B1FC" fill-opacity="0.7"/>
<rect x="34.5588" y="34.1174" width="12.4412" height="8.29411" transform="rotate(90 34.5588 34.1174)" fill="#B3B1FC" fill-opacity="0.7"/>
<path d="M59.944 64L52.84 56.896V23.936L59.944 16.832H82.216L88.68 23.296L83.624 28.416L78.952 23.872H63.656L60.84 26.688L60.904 54.144L63.656 56.96H79.528L84.2 52.352L89.256 57.536L82.792 64H59.944ZM95.3625 64V16.832H103.107V35.456L108.035 30.528H120.003L127.107 37.696V64H119.363V39.488L116.675 36.544H109.955L103.107 43.328V64H95.3625ZM140.587 64L133.483 56.896V49.664L140.587 42.496H156.779V39.68L153.963 36.864H137.899V30.528H157.419L164.523 37.696V64H156.779V59.136L151.851 64H140.587ZM144.043 58.048L150.059 57.984L156.779 51.264V48.512H144.043L141.227 51.328V55.168L144.043 58.048ZM180.52 64L174.056 57.664V36.544H171.368V30.528H174.248L176.296 22.4H181.8V30.528H187.624V36.544H181.8V54.912L184.424 57.664H189.16V64H180.52Z" fill="#B3B1FC" fill-opacity="0.7"/>
</svg>
