<svg width="422" height="174" viewBox="0 0 422 174" fill="none" xmlns="http://www.w3.org/2000/svg">
<rect x="26.4706" y="31" width="52.9411" height="26.4706" fill="#B3B1FC" fill-opacity="0.7"/>
<path d="M26.4706 57.4706H0L13.2353 44.2353L26.4706 31L26.4706 57.4706Z" fill="#B3B1FC"/>
<path d="M73.5294 104.529L73.5294 78.0588L86.7647 91.2941L100 104.529L73.5294 104.529Z" fill="#B3B1FC"/>
<path d="M73.5294 122.176L100 122.176L86.7647 135.412L73.5294 148.647L73.5294 122.176Z" fill="#B3B1FC"/>
<path d="M26.4706 122.176L26.4706 148.647L13.2353 135.412L3.15658e-07 122.176L26.4706 122.176Z" fill="#B3B1FC"/>
<rect x="26.4706" y="57.4706" width="64.7058" height="26.4706" transform="rotate(90 26.4706 57.4706)" fill="#B3B1FC" fill-opacity="0.7"/>
<rect x="26.4706" y="122.176" width="47.0588" height="26.4706" fill="#B3B1FC" fill-opacity="0.7"/>
<rect x="73.5294" y="104.529" width="26.4706" height="17.6471" fill="#B3B1FC" fill-opacity="0.7"/>
<rect x="73.5294" y="78.0588" width="26.4706" height="17.6471" transform="rotate(90 73.5294 78.0588)" fill="#B3B1FC" fill-opacity="0.7"/>
<path d="M124.795 145L108.7 128.905V54.23L124.795 38.135H175.255L189.9 52.78L178.445 64.38L167.86 54.085H133.205L126.825 60.465L126.97 122.67L133.205 129.05H169.165L179.75 118.61L191.205 130.355L176.56 145H124.795ZM205.04 145V38.135H222.585V80.33L233.75 69.165H260.865L276.96 85.405V145H259.415V89.465L253.325 82.795H238.1L222.585 98.165V145H205.04ZM307.501 145L291.406 128.905V112.52L307.501 96.28H344.186V89.9L337.806 83.52H301.411V69.165H345.636L361.731 85.405V145H344.186V133.98L333.021 145H307.501ZM315.331 131.515L328.961 131.37L344.186 116.145V109.91H315.331L308.951 116.29V124.99L315.331 131.515ZM397.975 145L383.33 130.645V82.795H377.24V69.165H383.765L388.405 50.75H400.875V69.165H414.07V82.795H400.875V124.41L406.82 130.645H417.55V145H397.975Z" fill="#B3B1FC" fill-opacity="0.7"/>
</svg>
