<svg width="106" height="150" viewBox="0 0 106 150" fill="none" xmlns="http://www.w3.org/2000/svg">
<path d="M24.7132 135.186H28.0946V142.072C26.1977 144.189 23.4761 145.247 19.9297 145.247C16.9331 145.247 14.4314 144.258 12.4245 142.278C10.4177 140.299 9.41422 137.825 9.41422 134.856C9.41422 131.887 10.4314 129.399 12.4658 127.392C14.5276 125.357 17.0156 124.34 19.9297 124.34C22.8438 124.34 25.263 125.179 27.1874 126.856L25.373 129.454C23.9709 128.271 22.2527 127.68 20.2183 127.68C18.1565 127.68 16.4245 128.354 15.0225 129.701C13.6479 131.021 12.9606 132.739 12.9606 134.856C12.9606 136.973 13.6204 138.691 14.94 140.01C16.2871 141.302 17.9503 141.948 19.9297 141.948C21.8541 141.948 23.4486 141.536 24.7132 140.711V135.186ZM47.4954 139.433L49.681 141.66C47.5916 144.052 45.0074 145.247 41.9284 145.247C38.8769 145.247 36.3339 144.271 34.2995 142.32C32.2927 140.34 31.2892 137.852 31.2892 134.856C31.2892 131.832 32.3202 129.33 34.382 127.351C36.4439 125.344 39.0418 124.34 42.1758 124.34C45.2549 124.34 47.8528 125.495 49.9696 127.804L47.8253 130.155C46.8631 129.22 45.9559 128.574 45.1037 128.216C44.2514 127.859 43.248 127.68 42.0933 127.68C40.0315 127.68 38.2995 128.34 36.8975 129.66C35.5229 130.979 34.8356 132.656 34.8356 134.691C34.8356 136.698 35.5229 138.402 36.8975 139.804C38.272 141.206 39.9078 141.907 41.8047 141.907C42.9593 141.907 43.949 141.715 44.7738 141.33C45.626 140.945 46.5332 140.313 47.4954 139.433ZM56.6217 145H53.4052V123.598H56.6217V132.423C57.0891 131.488 57.7901 130.759 58.7248 130.237C59.6595 129.687 60.6629 129.412 61.7351 129.412C63.522 129.412 64.9378 129.948 65.9825 131.021C67.0272 132.093 67.5495 133.619 67.5495 135.598V145H64.2918V136.588C64.2918 133.756 63.1234 132.34 60.7866 132.34C59.6045 132.34 58.6148 132.725 57.8176 133.495C57.0203 134.237 56.6217 135.296 56.6217 136.67V145ZM84.4504 145H81.5226V142.938C80.2305 144.478 78.526 145.247 76.4091 145.247C74.7872 145.247 73.4538 144.794 72.4091 143.887C71.392 142.952 70.8834 141.742 70.8834 140.258C70.8834 138.773 71.4332 137.646 72.5329 136.876C73.6325 136.107 75.1445 135.722 77.0689 135.722H81.2751V135.144C81.2751 133.11 80.1342 132.093 77.8524 132.093C76.4229 132.093 74.9384 132.615 73.3988 133.66L71.9555 131.639C73.8524 130.155 75.9693 129.412 78.3061 129.412C80.203 129.412 81.7012 129.893 82.8009 130.856C83.9006 131.79 84.4504 133.206 84.4504 135.103V145ZM81.2339 137.99H77.605C75.2683 137.99 74.0999 138.718 74.0999 140.175C74.0999 140.918 74.3885 141.495 74.9659 141.907C75.5432 142.292 76.3542 142.485 77.3988 142.485C78.471 142.485 79.3782 142.196 80.1205 141.619C80.8628 141.014 81.2339 140.23 81.2339 139.268V137.99ZM92.9499 132.258V140.052C92.9499 140.794 93.1423 141.385 93.5272 141.825C93.9396 142.237 94.4894 142.443 95.1767 142.443C95.809 142.443 96.4688 142.1 97.1561 141.412L98.4757 143.722C97.321 144.739 96.0702 145.247 94.7231 145.247C93.321 145.247 92.1389 144.766 91.1767 143.804C90.2145 142.814 89.7334 141.536 89.7334 139.969V132.258H87.7953V129.66H89.7334V124.835H92.9499V129.66H96.9911V132.258H92.9499Z" fill="#B3B1FC"/>
<rect x="29.4707" width="52.9411" height="26.4706" fill="#B3B1FC" fill-opacity="0.7"/>
<path d="M29.4706 26.4706H3L16.2353 13.2353L29.4706 0L29.4706 26.4706Z" fill="#B3B1FC"/>
<path d="M76.5294 73.5294L76.5294 47.0588L89.7647 60.2941L103 73.5294L76.5294 73.5294Z" fill="#B3B1FC"/>
<path d="M76.5294 91.1764L103 91.1764L89.7647 104.412L76.5294 117.647L76.5294 91.1764Z" fill="#B3B1FC"/>
<path d="M29.4706 91.1764L29.4706 117.647L16.2353 104.412L3 91.1764L29.4706 91.1764Z" fill="#B3B1FC"/>
<rect x="29.4707" y="26.4705" width="64.7058" height="26.4706" transform="rotate(90 29.4707 26.4705)" fill="#B3B1FC" fill-opacity="0.7"/>
<rect x="29.4707" y="91.1765" width="47.0588" height="26.4706" fill="#B3B1FC" fill-opacity="0.7"/>
<rect x="76.5294" y="73.5293" width="26.4706" height="17.6471" fill="#B3B1FC" fill-opacity="0.7"/>
<rect x="76.5294" y="47.0588" width="26.4706" height="17.6471" transform="rotate(90 76.5294 47.0588)" fill="#B3B1FC" fill-opacity="0.7"/>
</svg>
