<svg width="24" height="24" viewBox="0 0 24 24" fill="none" xmlns="http://www.w3.org/2000/svg">
<path d="M19.06 18.67L16.92 14.4L14.78 18.67M15.17 17.91H18.69M9.00999 5.84998H4.95M6.97 5.16998V5.84998M7.99001 5.84003C7.99001 7.59003 6.62 9.01001 4.94 9.01001M9.00999 9.01001C8.27999 9.01001 7.62 8.62 7.16 8M2 15C2 18.87 5.13 22 9 22L7.95 20.25M22 9C22 5.13 18.87 2 15 2L16.05 3.75M16.92 22C14.12 22 11.84 19.73 11.84 16.92C11.84 14.12 14.11 11.84 16.92 11.84C19.72 11.84 22 14.11 22 16.92C22 19.73 19.73 22 16.92 22ZM5.02 2H8.94C11.01 2 12.01 3.00002 11.96 5.02002V8.94C12.01 11.01 11.01 12.01 8.94 11.96H5.02C3 12 2 11 2 8.92999V5.01001C2 3.00001 3 2 5.02 2Z" stroke="black" stroke-width="1.5" stroke-linecap="round" stroke-linejoin="round"/>
</svg>
