<svg width="24" height="24" viewBox="0 0 24 24" fill="none" xmlns="http://www.w3.org/2000/svg">
<path d="M12 22C14.6 22 16.96 21.01 18.74 19.38C18.64 18.44 18.04 17.52 16.97 16.8C14.25 14.98 9.77 14.98 7.03 16.8C5.96 17.52 5.36 18.44 5.26 19.38C7.04 21.01 9.4 22 12 22ZM12 22C17.5228 22 22 17.5228 22 12C22 6.47715 17.5228 2 12 2C6.47715 2 2 6.47715 2 12C2 17.5228 6.47715 22 12 22ZM12.12 12.78C12.05 12.77 11.96 12.77 11.88 12.78C10.12 12.72 8.72 11.28 8.72 9.51C8.72 7.7 10.18 6.23 12 6.23C13.81 6.23 15.28 7.7 15.28 9.51C15.27 11.28 13.88 12.72 12.12 12.78Z" stroke="black" stroke-width="1.5" stroke-linecap="round" stroke-linejoin="round"/>
</svg>
