<svg width="24" height="24" viewBox="0 0 24 24" fill="none" xmlns="http://www.w3.org/2000/svg">
<path d="M10 16C10 14.34 10 13 13 13H17C20 13 20 12 20 10V8C20 6 20 5 17 5H16M16 5C16 7 15 8 13 8H12M16 5C16 3 15 2 13 2H12M12 2H8M12 2C12.65 3.95 12.65 6.05 12 8M12 2C13 4 13 6 12 8M8 2C7.35 3.95 7.35 6.05 8 8M8 2H7C5 2 4 3 4 5C4 7 5 8 7 8H8M8 2C7 4 7 6 8 8M8 8H12M9.5 22H10.5C12 22 12 21 12 20.5V17.5C12 17 12 16 10.5 16H9.5C8 16 8 17 8 17.5V20.5C8 21 8 22 9.5 22Z" stroke="black" stroke-width="1.5" stroke-linecap="round" stroke-linejoin="round"/>
</svg>
